<svg xmlns="http://www.w3.org/2000/svg" width="1400" height="900" viewBox="0 0 1400 900">
<rect width="100%" height="100%" fill="#f7f1e3"/>
<text x="90" y="34" font-size="26" font-weight="700" fill="#1f1f1f">GPS vs Optical Flow Comparison</text>
<text x="90" y="58" font-size="14" fill="#5f5a50">File: gps_flow_log_20260316_172721.csv | Samples: 1090 | Duration: 109.8s</text>
<rect x="90" y="55" width="1270" height="357.5" fill="#fffdfa" stroke="#d7cfbf"/>
<line x1="90" y1="55.00" x2="1360" y2="55.00" stroke="#ece6d9" stroke-width="1"/>
<text x="78" y="59.00" text-anchor="end" font-size="12" fill="#5f5a50">12.8878492</text>
<line x1="90" y1="126.50" x2="1360" y2="126.50" stroke="#ece6d9" stroke-width="1"/>
<text x="78" y="130.50" text-anchor="end" font-size="12" fill="#5f5a50">12.8878303</text>
<line x1="90" y1="198.00" x2="1360" y2="198.00" stroke="#ece6d9" stroke-width="1"/>
<text x="78" y="202.00" text-anchor="end" font-size="12" fill="#5f5a50">12.8878113</text>
<line x1="90" y1="269.50" x2="1360" y2="269.50" stroke="#ece6d9" stroke-width="1"/>
<text x="78" y="273.50" text-anchor="end" font-size="12" fill="#5f5a50">12.8877924</text>
<line x1="90" y1="341.00" x2="1360" y2="341.00" stroke="#ece6d9" stroke-width="1"/>
<text x="78" y="345.00" text-anchor="end" font-size="12" fill="#5f5a50">12.8877734</text>
<line x1="90" y1="412.50" x2="1360" y2="412.50" stroke="#ece6d9" stroke-width="1"/>
<text x="78" y="416.50" text-anchor="end" font-size="12" fill="#5f5a50">12.8877545</text>
<line x1="90.00" y1="55" x2="90.00" y2="412.5" stroke="#f1ebdf" stroke-width="1"/>
<text x="90.00" y="434.5" text-anchor="middle" font-size="12" fill="#5f5a50">0.0s</text>
<line x1="344.00" y1="55" x2="344.00" y2="412.5" stroke="#f1ebdf" stroke-width="1"/>
<text x="344.00" y="434.5" text-anchor="middle" font-size="12" fill="#5f5a50">22.0s</text>
<line x1="598.00" y1="55" x2="598.00" y2="412.5" stroke="#f1ebdf" stroke-width="1"/>
<text x="598.00" y="434.5" text-anchor="middle" font-size="12" fill="#5f5a50">43.9s</text>
<line x1="852.00" y1="55" x2="852.00" y2="412.5" stroke="#f1ebdf" stroke-width="1"/>
<text x="852.00" y="434.5" text-anchor="middle" font-size="12" fill="#5f5a50">65.9s</text>
<line x1="1106.00" y1="55" x2="1106.00" y2="412.5" stroke="#f1ebdf" stroke-width="1"/>
<text x="1106.00" y="434.5" text-anchor="middle" font-size="12" fill="#5f5a50">87.9s</text>
<line x1="1360.00" y1="55" x2="1360.00" y2="412.5" stroke="#f1ebdf" stroke-width="1"/>
<text x="1360.00" y="434.5" text-anchor="middle" font-size="12" fill="#5f5a50">109.8s</text>
<text x="90" y="39" font-size="18" font-weight="700" fill="#2d2a26">Latitude Comparison</text>
<rect x="90" y="482.5" width="1270" height="357.5" fill="#fffdfa" stroke="#d7cfbf"/>
<line x1="90" y1="482.50" x2="1360" y2="482.50" stroke="#ece6d9" stroke-width="1"/>
<text x="78" y="486.50" text-anchor="end" font-size="12" fill="#5f5a50">1010.9 m</text>
<line x1="90" y1="554.00" x2="1360" y2="554.00" stroke="#ece6d9" stroke-width="1"/>
<text x="78" y="558.00" text-anchor="end" font-size="12" fill="#5f5a50">995.1 m</text>
<line x1="90" y1="625.50" x2="1360" y2="625.50" stroke="#ece6d9" stroke-width="1"/>
<text x="78" y="629.50" text-anchor="end" font-size="12" fill="#5f5a50">979.3 m</text>
<line x1="90" y1="697.00" x2="1360" y2="697.00" stroke="#ece6d9" stroke-width="1"/>
<text x="78" y="701.00" text-anchor="end" font-size="12" fill="#5f5a50">963.5 m</text>
<line x1="90" y1="768.50" x2="1360" y2="768.50" stroke="#ece6d9" stroke-width="1"/>
<text x="78" y="772.50" text-anchor="end" font-size="12" fill="#5f5a50">947.7 m</text>
<line x1="90" y1="840.00" x2="1360" y2="840.00" stroke="#ece6d9" stroke-width="1"/>
<text x="78" y="844.00" text-anchor="end" font-size="12" fill="#5f5a50">931.9 m</text>
<line x1="90.00" y1="482.5" x2="90.00" y2="840.0" stroke="#f1ebdf" stroke-width="1"/>
<text x="90.00" y="862.0" text-anchor="middle" font-size="12" fill="#5f5a50">0.0s</text>
<line x1="344.00" y1="482.5" x2="344.00" y2="840.0" stroke="#f1ebdf" stroke-width="1"/>
<text x="344.00" y="862.0" text-anchor="middle" font-size="12" fill="#5f5a50">22.0s</text>
<line x1="598.00" y1="482.5" x2="598.00" y2="840.0" stroke="#f1ebdf" stroke-width="1"/>
<text x="598.00" y="862.0" text-anchor="middle" font-size="12" fill="#5f5a50">43.9s</text>
<line x1="852.00" y1="482.5" x2="852.00" y2="840.0" stroke="#f1ebdf" stroke-width="1"/>
<text x="852.00" y="862.0" text-anchor="middle" font-size="12" fill="#5f5a50">65.9s</text>
<line x1="1106.00" y1="482.5" x2="1106.00" y2="840.0" stroke="#f1ebdf" stroke-width="1"/>
<text x="1106.00" y="862.0" text-anchor="middle" font-size="12" fill="#5f5a50">87.9s</text>
<line x1="1360.00" y1="482.5" x2="1360.00" y2="840.0" stroke="#f1ebdf" stroke-width="1"/>
<text x="1360.00" y="862.0" text-anchor="middle" font-size="12" fill="#5f5a50">109.8s</text>
<text x="90" y="466.5" font-size="18" font-weight="700" fill="#2d2a26">Altitude Comparison</text>
<polyline fill="none" stroke="#0f766e" stroke-width="2.2" points="90.00,179.66 91.22,179.66 92.37,180.29 93.53,180.29 94.69,179.66 95.85,178.40 97.01,178.40 98.17,178.40 99.36,178.40 100.53,178.40 101.69,177.77 102.84,177.77 104.00,176.51 105.16,175.89 106.35,175.89 107.51,175.89 108.71,174.63 109.87,174.63 111.02,174.00 112.18,174.00 113.34,172.74 114.54,172.11 115.69,172.11 116.85,171.48 118.01,171.48 119.20,170.85 120.36,170.85 121.57,170.85 122.77,170.23 123.93,168.97 125.13,168.97 126.29,168.34 127.46,168.34 128.62,167.71 129.78,167.71 130.94,167.08 132.10,167.08 133.26,166.45 134.45,166.45 135.61,165.82 136.78,165.82 137.94,165.19 139.11,165.19 140.30,165.19 141.46,165.19 142.61,164.56 143.77,164.56 144.97,163.94 146.15,163.94 147.31,163.31 148.47,163.31 149.63,162.68 150.79,162.68 151.95,162.68 153.10,162.68 154.26,162.68 155.42,162.68 156.58,162.05 157.75,162.05 158.91,162.05 160.11,162.05 161.31,162.05 162.46,162.05 163.62,160.79 164.78,160.79 165.94,160.79 167.10,160.79 168.26,160.79 169.43,160.79 170.60,159.53 171.89,159.53 173.08,158.90 174.24,158.90 175.42,158.90 176.58,158.90 177.75,158.27 178.91,158.27 180.10,157.65 181.25,157.65 182.43,157.65 183.58,157.65 184.78,157.65 185.94,156.39 187.10,156.39 188.26,156.39 189.47,155.76 190.72,155.76 191.88,155.76 193.04,155.13 194.20,155.13 195.36,154.50 196.54,154.50 197.70,153.87 198.86,153.87 200.02,153.87 201.24,153.87 202.41,154.50 203.58,154.50 204.78,154.50 205.93,154.50 207.09,153.87 208.35,153.87 209.50,153.87 210.71,153.87 211.90,153.24 213.10,153.24 214.30,153.87 215.51,153.87 216.70,153.24 217.85,153.24 219.03,153.87 220.21,153.87 221.37,153.87 222.53,153.87 223.70,153.87 224.88,153.87 226.31,152.61 227.48,152.61 228.65,151.99 229.99,151.99 231.15,151.99 232.31,151.36 233.49,151.36 234.92,150.73 236.08,150.73 237.40,150.10 238.55,150.10 239.71,150.10 240.91,150.10 242.25,149.47 243.46,149.47 244.63,148.84 245.80,148.21 246.96,148.21 248.12,148.21 249.28,148.21 250.49,148.21 251.66,148.21 252.82,147.58 253.99,147.58 255.17,147.58 256.43,147.58 257.62,147.58 258.78,147.58 259.97,147.58 261.13,146.95 262.35,146.95 263.58,146.95 264.80,146.95 265.98,146.95 267.15,146.95 268.48,146.95 270.06,146.32 271.23,146.32 272.38,146.32 273.55,146.32 274.71,146.32 275.94,146.32 277.12,146.32 278.29,145.70 279.45,145.70 280.75,145.70 281.92,145.70 283.08,145.07 284.24,145.07 285.40,145.07 286.70,145.07 287.99,145.07 289.18,145.07 290.52,145.07 291.68,145.07 292.84,144.44 294.00,144.44 295.15,144.44 296.31,144.44 297.47,144.44 298.63,144.44 299.79,144.44 300.95,144.44 302.13,144.44 303.28,144.44 304.45,144.44 305.61,144.44 306.79,144.44 307.95,144.44 309.11,144.44 310.27,144.44 311.43,143.81 312.61,143.81 313.82,143.81 314.98,143.81 316.14,143.81 317.30,143.81 318.46,144.44 319.61,144.44 320.78,143.81 321.95,143.81 323.11,143.81 324.31,143.81 325.47,143.81 326.63,143.81 327.81,143.81 328.97,143.81 330.13,143.81 331.45,143.81 332.61,143.81 333.77,144.44 334.95,144.44 336.20,144.44 337.38,144.44 338.55,144.44 339.70,144.44 340.87,144.44 342.03,144.44 343.19,144.44 344.34,144.44 345.64,144.44 346.79,144.44 348.08,143.81 349.24,143.81 350.40,143.18 351.75,143.18 352.91,142.55 354.07,142.55 355.23,141.92 356.39,141.92 357.81,141.29 358.97,140.66 360.20,140.66 361.36,140.04 362.52,140.04 363.67,140.04 364.83,140.04 365.99,140.04 367.19,139.41 368.35,139.41 369.51,139.41 370.67,138.78 371.84,138.78 373.03,137.52 374.18,137.52 375.35,137.52 376.54,137.52 377.70,137.52 378.88,136.89 380.04,136.26 381.26,136.26 382.55,136.26 383.72,136.26 384.92,135.63 386.08,135.63 387.40,135.63 388.57,135.63 389.72,135.63 390.89,135.63 392.05,135.63 393.21,135.63 394.37,135.00 395.57,135.00 396.73,134.37 397.93,134.37 399.10,133.75 400.26,133.75 401.42,133.12 402.59,133.12 403.88,133.12 405.05,133.12 406.21,132.49 407.37,132.49 408.62,131.86 409.80,131.86 410.96,131.86 412.12,131.86 413.30,131.23 414.46,131.23 415.62,131.23 416.78,131.23 417.95,130.60 419.13,129.97 420.30,129.97 421.45,129.97 422.74,129.34 423.90,129.34 425.06,129.34 426.23,129.34 427.38,128.71 428.54,128.71 429.70,128.71 430.91,128.08 432.07,128.08 433.25,128.08 434.46,127.46 435.67,127.46 436.84,126.83 437.99,126.20 439.15,126.20 440.31,125.57 441.53,125.57 442.70,125.57 443.87,125.57 445.03,124.94 446.22,124.94 447.41,124.94 448.60,124.31 449.76,123.68 450.92,123.68 452.09,123.05 453.25,123.05 454.43,123.05 455.59,123.05 456.79,122.42 457.95,122.42 459.12,122.42 460.28,122.42 461.46,122.42 462.61,122.42 463.77,121.80 464.93,121.80 466.09,121.80 467.25,121.80 468.40,120.54 469.57,120.54 470.72,119.28 471.88,119.28 473.08,118.65 474.33,118.65 475.53,118.02 476.69,118.02 477.89,116.76 479.09,116.76 480.24,116.13 481.58,116.13 482.79,115.51 483.95,114.25 485.11,114.25 486.30,113.62 487.46,113.62 488.72,112.99 489.87,112.99 491.03,112.36 492.19,112.36 493.36,112.36 494.51,112.36 495.68,112.36 496.84,112.36 498.00,111.73 499.16,111.73 500.39,111.10 501.55,111.10 502.72,110.47 503.87,110.47 505.03,110.47 506.19,109.85 507.35,109.85 508.51,109.85 509.67,109.85 510.83,109.85 511.99,109.22 513.15,109.22 514.31,108.59 515.48,108.59 516.66,108.59 517.84,107.33 519.00,106.70 520.16,106.70 521.32,105.44 522.47,105.44 523.67,104.81 524.83,104.81 526.00,104.18 527.17,104.18 528.33,104.18 529.49,103.56 530.65,103.56 531.80,103.56 532.96,102.93 534.12,102.93 535.28,102.93 536.44,102.93 537.60,102.30 538.75,102.30 539.91,101.67 541.07,101.67 542.23,101.67 543.38,101.67 544.54,101.04 545.70,101.04 546.86,101.04 548.01,101.04 549.17,100.41 550.33,100.41 551.48,100.41 552.64,100.41 553.80,99.78 554.96,99.78 556.11,99.78 557.27,99.78 558.43,99.78 559.59,99.78 560.75,100.41 561.91,100.41 563.06,100.41 564.22,99.78 565.38,99.78 566.54,99.78 567.69,99.15 568.85,99.15 570.01,98.52 571.17,98.52 572.32,98.52 573.48,98.52 574.64,98.52 575.79,98.52 576.95,98.52 578.11,98.52 579.27,98.52 580.42,98.52 581.58,98.52 582.74,98.52 583.90,97.89 585.05,97.89 586.21,97.89 587.37,97.89 588.52,97.27 589.68,97.27 590.84,96.64 592.00,96.64 593.16,96.01 594.32,96.01 595.48,95.38 596.63,95.38 597.79,94.75 598.95,94.75 600.11,94.75 601.27,94.75 602.43,94.75 603.59,94.75 604.75,94.12 605.91,94.12 607.06,94.12 608.22,94.12 609.38,93.49 610.54,93.49 611.69,93.49 612.85,93.49 614.01,92.86 615.17,92.86 616.32,92.86 617.48,92.86 618.64,92.86 619.79,92.86 620.95,92.86 622.15,92.23 623.31,92.86 624.47,92.86 625.63,92.23 626.78,92.23 627.94,92.23 629.10,92.23 630.26,92.23 631.43,92.23 632.58,92.23 633.74,91.61 634.90,90.35 636.05,90.35 637.21,89.09 638.37,89.09 639.53,88.46 640.68,88.46 641.84,88.46 643.00,88.46 644.16,88.46 645.31,87.83 646.47,87.83 647.63,87.83 648.79,87.20 649.94,87.20 651.11,86.57 652.27,86.57 653.43,86.57 654.58,86.57 655.74,86.57 656.90,86.57 658.05,86.57 659.21,86.57 660.37,86.57 661.53,86.57 662.68,86.57 663.84,86.57 665.00,86.57 666.16,86.57 667.32,86.57 668.48,86.57 669.63,86.57 670.79,86.57 671.95,85.94 673.11,85.94 674.26,85.94 675.42,85.94 676.58,85.94 677.74,85.94 678.89,85.94 680.05,85.94 681.21,85.32 682.37,85.32 683.52,85.32 684.68,85.32 685.84,85.32 687.00,85.32 688.15,84.69 689.31,84.69 690.47,84.69 691.62,84.69 692.78,84.69 693.94,84.69 695.10,84.69 696.26,84.69 697.41,84.69 698.57,84.69 699.73,84.06 700.89,84.06 702.04,83.43 703.20,83.43 704.36,83.43 705.52,83.43 706.67,82.80 707.83,82.80 708.99,82.80 710.15,82.80 711.31,82.80 712.46,82.80 713.62,82.80 714.78,82.80 715.94,82.80 717.09,82.80 718.25,82.80 719.41,82.80 720.57,82.80 721.73,82.80 722.89,82.80 724.04,82.80 725.20,83.43 726.36,83.43 727.52,83.43 728.67,83.43 729.83,83.43 730.99,83.43 732.15,83.43 733.31,83.43 734.46,83.43 735.62,83.43 736.78,83.43 737.94,84.06 739.10,84.06 740.26,84.06 741.41,84.06 742.57,84.06 743.73,84.06 744.88,84.06 746.04,84.06 747.20,84.06 748.36,84.06 749.51,83.43 750.67,82.80 751.83,82.80 752.99,82.17 754.15,82.17 755.30,82.17 756.47,82.17 757.64,81.54 758.79,81.54 759.95,81.54 761.11,80.91 762.27,80.91 763.43,80.91 764.58,80.28 765.74,80.28 766.90,80.28 768.06,80.28 769.21,80.28 770.37,80.28 771.53,80.28 772.69,79.66 773.84,80.28 775.00,80.28 776.16,80.28 777.32,80.28 778.47,80.28 779.63,80.28 780.79,80.28 781.94,80.28 783.11,80.28 784.27,80.28 785.43,79.66 786.58,79.66 787.74,79.66 788.90,79.66 790.06,79.66 791.21,79.66 792.37,79.66 793.53,79.66 794.69,79.66 795.85,79.66 797.00,124.94 798.16,124.94 799.32,157.02 800.47,157.02 801.63,185.32 802.79,185.32 803.95,184.69 805.10,184.69 806.26,203.56 807.42,203.56 808.58,218.03 809.73,218.03 810.89,229.98 812.05,229.98 813.21,239.41 814.36,239.41 815.52,234.38 816.68,234.38 817.84,234.38 819.00,242.56 820.16,250.10 821.31,250.10 822.47,256.39 823.63,256.39 824.79,262.68 825.95,262.68 827.10,262.68 828.26,268.34 829.42,268.34 830.58,274.63 831.73,279.66 832.89,279.66 834.05,284.07 835.21,284.07 836.36,284.07 837.52,284.07 838.68,282.81 839.84,282.81 840.99,283.44 842.15,283.44 843.31,285.95 844.47,285.95 845.62,287.21 846.78,287.21 847.94,291.61 849.10,291.61 850.25,293.50 851.41,293.50 852.57,297.90 853.73,297.90 854.89,301.68 856.04,301.68 857.20,305.45 858.36,305.45 859.52,309.23 860.68,309.23 861.83,309.23 862.99,313.63 864.15,313.63 865.31,318.03 866.46,321.80 867.62,321.80 868.78,325.58 869.94,325.58 871.09,328.72 872.25,328.72 873.41,328.72 874.57,331.24 875.72,331.87 876.89,331.87 878.04,331.87 879.20,331.87 880.37,332.50 881.53,332.50 882.69,333.13 883.85,333.13 885.00,333.13 886.16,333.13 887.32,333.75 888.48,333.75 889.63,336.90 890.79,336.90 891.95,340.04 893.11,340.04 894.26,341.93 895.42,341.93 896.58,341.93 897.74,344.45 898.89,344.45 900.05,346.33 901.21,346.96 902.37,346.96 903.52,347.59 904.68,347.59 905.84,348.85 907.00,348.85 908.15,348.85 909.31,351.37 910.47,351.37 911.63,353.25 912.78,355.77 913.94,355.77 915.10,358.28 916.27,358.28 917.43,360.17 918.59,360.17 919.75,360.17 920.91,362.06 922.07,362.06 923.22,360.80 924.38,361.43 925.54,361.43 926.70,361.43 927.85,361.43 929.01,358.28 930.17,358.28 931.33,360.17 932.48,360.17 933.64,360.17 934.80,361.43 935.96,360.80 937.11,360.80 938.27,357.65 939.43,357.65 940.58,358.28 941.74,358.28 942.90,358.28 944.06,358.28 945.22,358.28 946.37,358.91 947.53,359.54 948.69,359.54 949.85,355.77 951.02,355.77 952.17,354.51 953.33,354.51 954.49,353.88 955.65,353.88 956.80,353.88 957.97,353.88 959.12,353.25 960.28,353.25 961.46,352.62 962.62,352.62 963.78,351.99 964.94,351.99 966.09,351.37 967.25,351.37 968.41,351.37 969.57,351.37 970.72,351.37 971.88,351.37 973.04,351.99 974.20,351.99 975.35,351.37 976.51,351.37 977.67,351.37 978.83,353.25 979.99,353.25 981.15,351.99 982.30,351.37 983.46,351.37 984.62,351.37 985.78,351.37 986.95,350.74 988.11,350.74 989.26,350.11 990.42,350.11 991.58,349.48 992.74,349.48 993.89,348.85 995.05,348.85 996.22,347.59 997.38,347.59 998.54,347.59 999.70,347.59 1000.85,347.59 1002.01,347.59 1003.17,347.59 1004.33,347.59 1005.48,349.48 1006.64,349.48 1007.80,350.74 1008.95,350.74 1010.11,350.11 1011.27,350.11 1012.43,350.11 1013.58,350.11 1014.74,349.48 1015.90,349.48 1017.06,350.74 1018.22,350.74 1019.37,351.99 1020.53,351.99 1021.69,353.88 1022.85,353.88 1024.00,353.88 1025.18,354.51 1026.34,354.51 1027.50,356.40 1028.66,356.40 1029.82,356.40 1030.97,357.03 1032.13,357.03 1033.29,357.03 1034.45,357.03 1035.60,358.28 1036.76,358.28 1037.92,357.65 1039.08,357.65 1040.24,357.03 1041.39,357.03 1042.55,357.65 1043.71,357.65 1044.87,356.40 1046.03,356.40 1047.18,358.28 1048.35,358.28 1049.51,358.28 1050.67,359.54 1051.82,360.80 1052.98,360.80 1054.14,362.06 1055.30,362.06 1056.46,363.94 1057.61,363.94 1058.77,363.94 1059.93,365.20 1061.09,365.83 1062.24,365.83 1063.40,367.09 1064.56,367.09 1065.72,367.72 1066.87,367.72 1068.03,368.98 1069.19,368.98 1070.34,368.35 1071.50,368.35 1072.66,367.09 1073.82,367.09 1074.97,367.72 1076.13,367.72 1077.29,368.35 1078.45,368.35 1079.60,368.98 1080.76,368.98 1081.92,369.61 1083.08,369.61 1084.24,368.98 1085.39,368.98 1086.55,368.35 1087.71,368.35 1088.87,367.09 1090.02,367.09 1091.18,366.46 1092.34,366.46 1093.50,366.46 1094.65,367.72 1095.81,367.72 1096.97,368.35 1098.13,368.98 1099.28,368.98 1100.44,369.61 1101.60,369.61 1102.76,369.61 1103.91,369.61 1105.07,369.61 1106.23,370.86 1107.39,370.86 1108.54,371.49 1109.70,370.23 1110.86,370.23 1112.02,368.98 1113.17,368.98 1114.33,370.23 1115.49,370.23 1116.65,368.98 1117.81,368.98 1118.97,368.98 1120.12,370.23 1121.28,370.86 1122.44,370.86 1123.60,371.49 1124.75,371.49 1125.91,371.49 1127.07,371.49 1128.22,371.49 1129.38,371.49 1130.54,370.86 1131.70,370.86 1132.85,370.23 1134.01,370.23 1135.17,369.61 1136.33,369.61 1137.48,369.61 1138.64,369.61 1139.80,369.61 1140.96,370.23 1142.11,370.23 1143.27,370.23 1144.43,369.61 1145.59,369.61 1146.74,369.61 1147.90,369.61 1149.06,369.61 1150.23,369.61 1151.39,369.61 1152.55,369.61 1153.71,369.61 1154.87,369.61 1156.02,369.61 1157.18,369.61 1158.34,369.61 1159.50,369.61 1160.65,368.35 1161.81,368.35 1162.97,368.35 1164.13,368.35 1165.29,368.35 1166.45,368.98 1167.60,369.61 1168.76,369.61 1169.92,370.23 1171.08,370.23 1172.23,370.86 1173.39,370.86 1174.55,370.86 1175.71,372.12 1176.86,372.75 1178.02,372.75 1179.18,374.01 1180.34,374.01 1181.49,372.75 1182.65,372.75 1183.81,371.49 1184.97,371.49 1186.12,371.49 1187.28,371.49 1188.44,370.86 1189.60,370.86 1190.76,370.23 1191.91,370.23 1193.07,369.61 1194.23,369.61 1195.40,368.98 1196.59,368.98 1197.75,368.35 1198.91,368.35 1200.06,368.35 1201.22,368.35 1202.38,368.35 1203.54,368.35 1204.70,368.35 1205.85,368.35 1207.01,368.35 1208.17,368.35 1209.32,368.98 1210.51,368.98 1211.72,370.23 1212.88,370.23 1214.04,370.86 1215.19,370.86 1216.35,371.49 1217.51,371.49 1218.67,372.12 1219.82,372.12 1220.98,372.75 1222.14,372.75 1223.30,372.12 1224.46,372.12 1225.61,371.49 1226.77,371.49 1227.94,371.49 1229.10,371.49 1230.26,371.49 1231.41,371.49 1232.57,370.86 1233.73,370.86 1234.88,370.86 1236.04,370.86 1237.20,371.49 1238.36,371.49 1239.51,372.12 1240.67,372.12 1241.83,372.75 1242.99,372.75 1244.14,372.75 1245.30,372.75 1246.46,373.38 1247.62,374.01 1248.77,374.01 1249.93,374.01 1251.09,374.01 1252.24,374.01 1253.40,374.01 1254.56,374.01 1255.72,374.64 1256.89,374.64 1258.05,374.64 1259.21,375.27 1260.37,375.27 1261.53,375.27 1262.69,375.89 1263.85,375.89 1265.01,375.89 1266.17,375.89 1267.33,375.89 1268.48,375.89 1269.65,374.64 1270.80,374.01 1271.96,374.01 1273.12,374.01 1274.28,373.38 1275.44,373.38 1276.60,373.38 1277.75,373.38 1278.91,373.38 1280.07,373.38 1281.22,373.38 1282.38,374.01 1283.54,374.01 1284.74,374.01 1285.90,375.27 1287.05,375.89 1288.21,375.89 1289.37,375.89 1290.53,376.52 1291.69,376.52 1292.84,377.78 1294.00,377.78 1295.16,378.41 1296.32,378.41 1297.48,379.04 1298.64,380.30 1299.79,380.30 1300.95,380.30 1302.11,380.93 1303.27,380.93 1304.42,382.18 1305.58,382.81 1306.74,382.81 1307.90,384.07 1309.05,384.07 1310.21,384.07 1311.37,384.07 1312.53,384.07 1313.68,384.70 1314.84,384.70 1316.00,382.81 1317.16,382.81 1318.32,383.44 1319.47,384.70 1320.63,384.70 1321.79,384.70 1322.95,385.33 1324.10,385.33 1325.26,385.96 1326.42,385.96 1327.58,385.96 1328.74,387.84 1329.90,387.22 1331.06,387.22 1332.21,387.22 1333.37,387.22 1334.53,387.22 1335.69,387.22 1336.85,387.22 1338.00,387.22 1339.16,385.33 1340.32,385.33 1341.48,385.33 1342.64,385.96 1343.79,385.96 1344.95,385.96 1346.11,386.59 1347.27,386.59 1348.42,385.96 1349.58,385.96 1350.74,385.33 1351.90,385.33 1353.05,384.70 1354.21,384.70 1355.37,384.70 1356.53,384.70 1357.69,385.33 1358.84,385.33 1360.00,384.07" />
<polyline fill="none" stroke="#dc2626" stroke-width="2.2" points="90.00,173.37 91.22,173.37 92.37,173.37 93.53,173.37 94.69,173.37 95.85,173.37 97.01,173.37 98.17,173.37 99.36,173.37 100.53,173.37 101.69,173.37 102.84,173.37 104.00,173.37 105.16,173.37 106.35,173.37 107.51,173.37 108.71,173.37 109.87,173.37 111.02,173.37 112.18,173.37 113.34,173.37 114.54,173.37 115.69,173.37 116.85,173.37 118.01,173.37 119.20,173.37 120.36,173.37 121.57,173.37 122.77,173.37 123.93,173.37 125.13,173.37 126.29,173.37 127.46,173.37 128.62,173.37 129.78,173.37 130.94,173.37 132.10,173.37 133.26,173.37 134.45,173.37 135.61,173.37 136.78,173.37 137.94,173.37 139.11,173.37 140.30,173.37 141.46,173.37 142.61,173.37 143.77,173.37 144.97,173.37 146.15,173.37 147.31,173.37 148.47,173.37 149.63,173.37 150.79,173.37 151.95,173.37 153.10,173.37 154.26,173.37 155.42,173.37 156.58,173.37 157.75,173.37 158.91,173.37 160.11,173.37 161.31,173.37 162.46,173.37 163.62,173.37 164.78,173.37 165.94,173.37 167.10,173.37 168.26,173.37 169.43,173.37 170.60,173.37 171.89,173.37 173.08,173.37 174.24,173.37 175.42,173.37 176.58,173.37 177.75,173.37 178.91,173.37 180.10,173.37 181.25,173.37 182.43,173.37 183.58,173.37 184.78,173.37 185.94,173.37 187.10,173.37 188.26,173.37 189.47,173.37 190.72,173.37 191.88,173.37 193.04,173.37 194.20,173.37 195.36,173.37 196.54,173.37 197.70,173.37 198.86,173.37 200.02,173.37 201.24,173.37 202.41,173.37 203.58,173.37 204.78,173.37 205.93,173.37 207.09,173.37 208.35,173.37 209.50,173.37 210.71,173.37 211.90,173.37 213.10,173.37 214.30,173.37 215.51,173.37 216.70,173.37 217.85,173.37 219.03,173.37 220.21,173.37 221.37,173.37 222.53,173.37 223.70,173.37 224.88,173.37 226.31,173.37 227.48,173.37 228.65,173.37 229.99,173.37 231.15,173.37 232.31,173.37 233.49,173.37 234.92,173.37 236.08,173.37 237.40,173.37 238.55,173.37 239.71,173.37 240.91,173.37 242.25,173.37 243.46,173.37 244.63,173.37 245.80,173.37 246.96,173.37 248.12,173.37 249.28,173.37 250.49,173.37 251.66,173.37 252.82,173.37 253.99,173.37 255.17,173.37 256.43,173.37 257.62,173.37 258.78,173.37 259.97,173.37 261.13,173.37 262.35,173.37 263.58,173.37 264.80,173.37 265.98,173.37 267.15,173.37 268.48,173.37 270.06,173.37 271.23,173.37 272.38,173.37 273.55,173.37 274.71,173.37 275.94,173.37 277.12,173.37 278.29,173.37 279.45,173.37 280.75,173.37 281.92,173.37 283.08,173.37 284.24,173.37 285.40,173.37 286.70,173.37 287.99,173.37 289.18,173.37 290.52,173.37 291.68,173.37 292.84,173.37 294.00,173.37 295.15,173.37 296.31,173.37 297.47,173.37 298.63,173.37 299.79,173.37 300.95,173.37 302.13,173.37 303.28,173.37 304.45,173.37 305.61,173.37 306.79,173.37 307.95,173.37 309.11,173.37 310.27,173.37 311.43,173.37 312.61,173.37 313.82,173.37 314.98,173.37 316.14,173.37 317.30,173.37 318.46,173.37 319.61,173.37 320.78,173.37 321.95,173.37 323.11,173.37 324.31,173.37 325.47,173.37 326.63,173.37 327.81,173.37 328.97,173.37 330.13,173.37 331.45,173.37 332.61,173.37 333.77,173.37 334.95,173.37 336.20,173.37 337.38,173.37 338.55,173.37 339.70,173.37 340.87,173.37 342.03,173.37 343.19,173.37 344.34,173.37 345.64,173.37 346.79,173.37 348.08,173.37 349.24,173.37 350.40,173.37 351.75,173.37 352.91,173.37 354.07,173.37 355.23,173.37 356.39,173.37 357.81,173.37 358.97,173.37 360.20,173.37 361.36,173.37 362.52,173.37 363.67,173.37 364.83,173.37 365.99,173.37 367.19,173.37 368.35,173.37 369.51,173.37 370.67,173.37 371.84,173.37 373.03,173.37 374.18,173.37 375.35,173.37 376.54,173.37 377.70,173.37 378.88,173.37 380.04,173.37 381.26,173.37 382.55,173.37 383.72,173.37 384.92,173.37 386.08,173.37 387.40,173.37 388.57,173.37 389.72,173.37 390.89,173.37 392.05,173.37 393.21,173.37 394.37,173.37 395.57,173.37 396.73,173.37 397.93,173.37 399.10,173.37 400.26,173.37 401.42,173.37 402.59,173.37 403.88,173.37 405.05,173.37 406.21,173.37 407.37,173.37 408.62,173.37 409.80,173.37 410.96,173.37 412.12,173.37 413.30,173.37 414.46,173.37 415.62,173.37 416.78,173.37 417.95,173.37 419.13,173.37 420.30,173.37 421.45,173.37 422.74,173.37 423.90,173.37 425.06,173.37 426.23,173.37 427.38,173.37 428.54,173.37 429.70,173.37 430.91,173.37 432.07,173.37 433.25,173.37 434.46,173.37 435.67,173.37 436.84,173.37 437.99,173.37 439.15,173.37 440.31,173.37 441.53,173.37 442.70,173.37 443.87,173.37 445.03,173.37 446.22,173.37 447.41,173.37 448.60,173.37 449.76,173.37 450.92,173.37 452.09,173.37 453.25,173.37 454.43,173.37 455.59,173.37 456.79,173.37 457.95,173.37 459.12,173.37 460.28,173.37 461.46,173.37 462.61,173.37 463.77,173.37 464.93,173.37 466.09,173.37 467.25,173.37 468.40,173.37 469.57,173.37 470.72,173.37 471.88,173.37 473.08,173.37 474.33,173.37 475.53,173.37 476.69,173.37 477.89,173.37 479.09,173.37 480.24,173.37 481.58,173.37 482.79,173.37 483.95,173.37 485.11,173.37 486.30,173.37 487.46,173.37 488.72,173.37 489.87,173.37 491.03,173.37 492.19,173.37 493.36,173.37 494.51,173.37 495.68,173.37 496.84,173.37 498.00,173.37 499.16,173.37 500.39,173.37 501.55,173.37 502.72,173.37 503.87,173.37 505.03,173.37 506.19,173.37 507.35,173.37 508.51,173.37 509.67,173.37 510.83,173.37 511.99,173.37 513.15,173.37 514.31,173.37 515.48,173.37 516.66,173.37 517.84,173.37 519.00,173.37 520.16,173.37 521.32,173.37 522.47,173.37 523.67,173.37 524.83,173.37 526.00,173.37 527.17,173.37 528.33,173.37 529.49,173.37 530.65,173.37 531.80,173.37 532.96,173.37 534.12,173.37 535.28,173.37 536.44,173.37 537.60,173.37 538.75,173.37 539.91,173.37 541.07,173.37 542.23,173.37 543.38,173.37 544.54,173.37 545.70,173.37 546.86,173.37 548.01,173.37 549.17,173.37 550.33,173.37 551.48,173.37 552.64,173.37 553.80,173.37 554.96,173.37 556.11,173.37 557.27,173.37 558.43,173.37 559.59,173.37 560.75,173.37 561.91,173.37 563.06,173.37 564.22,173.37 565.38,173.37 566.54,173.37 567.69,173.37 568.85,173.37 570.01,173.37 571.17,173.37 572.32,173.37 573.48,173.37 574.64,173.37 575.79,173.37 576.95,173.37 578.11,173.37 579.27,173.37 580.42,173.37 581.58,173.37 582.74,173.37 583.90,173.37 585.05,173.37 586.21,173.37 587.37,173.37 588.52,173.37 589.68,173.37 590.84,173.37 592.00,173.37 593.16,173.37 594.32,173.37 595.48,173.37 596.63,173.37 597.79,173.37 598.95,173.37 600.11,173.37 601.27,173.37 602.43,173.37 603.59,173.37 604.75,173.37 605.91,173.37 607.06,173.37 608.22,173.37 609.38,173.37 610.54,173.37 611.69,173.37 612.85,173.37 614.01,173.37 615.17,173.37 616.32,173.37 617.48,173.37 618.64,173.37 619.79,173.37 620.95,173.37 622.15,173.37 623.31,173.37 624.47,173.37 625.63,173.37 626.78,173.37 627.94,173.37 629.10,173.37 630.26,173.37 631.43,173.37 632.58,173.37 633.74,173.37 634.90,173.37 636.05,173.37 637.21,173.37 638.37,173.37 639.53,173.37 640.68,173.37 641.84,173.37 643.00,173.37 644.16,173.37 645.31,173.37 646.47,173.37 647.63,173.37 648.79,173.37 649.94,173.37 651.11,173.37 652.27,173.37 653.43,173.37 654.58,173.37 655.74,173.37 656.90,173.37 658.05,173.37 659.21,173.37 660.37,173.37 661.53,173.37 662.68,173.37 663.84,173.37 665.00,173.37 666.16,173.37 667.32,173.37 668.48,173.37 669.63,173.37 670.79,173.37 671.95,173.37 673.11,173.37 674.26,173.37 675.42,173.37 676.58,173.37 677.74,173.37 678.89,173.37 680.05,173.37 681.21,173.37 682.37,173.37 683.52,173.37 684.68,173.37 685.84,173.37 687.00,173.37 688.15,173.37 689.31,173.37 690.47,173.37 691.62,173.37 692.78,173.37 693.94,173.37 695.10,173.37 696.26,173.37 697.41,173.37 698.57,173.37 699.73,173.37 700.89,173.37 702.04,173.37 703.20,173.37 704.36,173.37 705.52,173.37 706.67,173.37 707.83,173.37 708.99,173.37 710.15,173.37 711.31,173.37 712.46,173.37 713.62,173.37 714.78,173.37 715.94,173.37 717.09,173.37 718.25,173.37 719.41,173.37 720.57,173.37 721.73,173.37 722.89,173.37 724.04,173.37 725.20,173.37 726.36,173.37 727.52,173.37 728.67,173.37 729.83,173.37 730.99,173.37 732.15,173.37 733.31,173.37 734.46,173.37 735.62,173.37 736.78,173.37 737.94,173.37 739.10,173.37 740.26,173.37 741.41,173.37 742.57,173.37 743.73,173.37 744.88,173.37 746.04,173.37 747.20,173.37 748.36,173.37 749.51,173.37 750.67,173.37 751.83,173.37 752.99,173.37 754.15,173.37 755.30,173.37 756.47,173.37 757.64,173.37 758.79,173.37 759.95,173.37 761.11,173.37 762.27,173.37 763.43,173.37 764.58,173.37 765.74,173.37 766.90,173.37 768.06,173.37 769.21,173.37 770.37,173.37 771.53,173.37 772.69,173.37 773.84,173.37 775.00,173.37 776.16,173.37 777.32,173.37 778.47,173.37 779.63,173.37 780.79,173.37 781.94,173.37 783.11,173.37 784.27,173.37 785.43,173.37 786.58,173.37 787.74,173.37 788.90,173.37 790.06,173.37 791.21,173.37 792.37,173.37 793.53,173.37 794.69,173.37 795.85,173.37 797.00,173.37 798.16,173.37 799.32,173.37 800.47,173.37 801.63,173.37 802.79,173.37 803.95,173.37 805.10,173.37 806.26,173.37 807.42,173.37 808.58,173.37 809.73,173.37 810.89,173.37 812.05,173.37 813.21,173.37 814.36,173.37 815.52,173.37 816.68,173.37 817.84,173.37 819.00,173.37 820.16,173.37 821.31,173.37 822.47,173.37 823.63,173.37 824.79,173.37 825.95,173.37 827.10,173.37 828.26,173.37 829.42,173.37 830.58,173.37 831.73,173.37 832.89,173.37 834.05,173.37 835.21,173.37 836.36,173.37 837.52,173.37 838.68,173.37 839.84,173.37 840.99,173.37 842.15,173.37 843.31,173.37 844.47,173.37 845.62,173.37 846.78,173.37 847.94,173.37 849.10,173.37 850.25,173.37 851.41,173.37 852.57,173.37 853.73,173.37 854.89,173.37 856.04,173.37 857.20,173.37 858.36,173.37 859.52,173.37 860.68,173.37 861.83,173.37 862.99,173.37 864.15,173.37 865.31,173.37 866.46,173.37 867.62,173.37 868.78,173.37 869.94,173.37 871.09,173.37 872.25,173.37 873.41,173.37 874.57,173.37 875.72,173.37 876.89,173.37 878.04,173.37 879.20,173.37 880.37,173.37 881.53,173.37 882.69,173.37 883.85,173.37 885.00,173.37 886.16,173.37 887.32,173.37 888.48,173.37 889.63,173.37 890.79,173.37 891.95,173.37 893.11,173.37 894.26,173.37 895.42,173.37 896.58,173.37 897.74,173.37 898.89,173.37 900.05,173.37 901.21,173.37 902.37,173.37 903.52,173.37 904.68,173.37 905.84,173.37 907.00,173.37 908.15,173.37 909.31,173.37 910.47,173.37 911.63,173.37 912.78,173.37 913.94,173.37 915.10,173.37 916.27,173.37 917.43,173.37 918.59,173.37 919.75,173.37 920.91,173.37 922.07,173.37 923.22,173.37 924.38,173.37 925.54,173.37 926.70,173.37 927.85,173.37 929.01,173.37 930.17,173.37 931.33,173.37 932.48,173.37 933.64,173.37 934.80,173.37 935.96,173.37 937.11,173.37 938.27,173.37 939.43,173.37 940.58,173.37 941.74,173.37 942.90,173.37 944.06,173.37 945.22,173.37 946.37,173.37 947.53,173.37 948.69,173.37 949.85,173.37 951.02,173.37 952.17,173.37 953.33,173.37 954.49,173.37 955.65,173.37 956.80,173.37 957.97,173.37 959.12,173.37 960.28,173.37 961.46,173.37 962.62,173.37 963.78,173.37 964.94,173.37 966.09,173.37 967.25,173.37 968.41,173.37 969.57,173.37 970.72,173.37 971.88,173.37 973.04,173.37 974.20,173.37 975.35,173.37 976.51,173.37 977.67,173.37 978.83,173.37 979.99,173.37 981.15,173.37 982.30,173.37 983.46,173.37 984.62,173.37 985.78,173.37 986.95,173.37 988.11,173.37 989.26,173.37 990.42,173.37 991.58,173.37 992.74,173.37 993.89,173.37 995.05,173.37 996.22,173.37 997.38,173.37 998.54,173.37 999.70,173.37 1000.85,173.37 1002.01,173.37 1003.17,173.37 1004.33,173.37 1005.48,173.37 1006.64,173.37 1007.80,173.37 1008.95,173.37 1010.11,173.37 1011.27,173.37 1012.43,173.37 1013.58,173.37 1014.74,173.37 1015.90,173.37 1017.06,173.37 1018.22,173.37 1019.37,173.37 1020.53,173.37 1021.69,173.37 1022.85,173.37 1024.00,173.37 1025.18,173.37 1026.34,173.37 1027.50,173.37 1028.66,173.37 1029.82,173.37 1030.97,173.37 1032.13,173.37 1033.29,173.37 1034.45,173.37 1035.60,173.37 1036.76,173.37 1037.92,173.37 1039.08,173.37 1040.24,173.37 1041.39,173.37 1042.55,173.37 1043.71,173.37 1044.87,173.37 1046.03,173.37 1047.18,173.37 1048.35,173.37 1049.51,173.37 1050.67,173.37 1051.82,173.37 1052.98,173.37 1054.14,173.37 1055.30,173.37 1056.46,173.37 1057.61,173.37 1058.77,173.37 1059.93,173.37 1061.09,173.37 1062.24,173.37 1063.40,173.37 1064.56,173.37 1065.72,173.37 1066.87,173.37 1068.03,173.37 1069.19,173.37 1070.34,173.37 1071.50,173.37 1072.66,173.37 1073.82,173.37 1074.97,173.37 1076.13,173.37 1077.29,173.37 1078.45,173.37 1079.60,173.37 1080.76,173.37 1081.92,173.37 1083.08,173.37 1084.24,173.37 1085.39,173.37 1086.55,173.37 1087.71,173.37 1088.87,173.37 1090.02,173.37 1091.18,173.37 1092.34,173.37 1093.50,173.37 1094.65,173.37 1095.81,173.37 1096.97,173.37 1098.13,173.37 1099.28,173.37 1100.44,173.37 1101.60,173.37 1102.76,173.37 1103.91,173.37 1105.07,173.37 1106.23,173.37 1107.39,173.37 1108.54,173.37 1109.70,173.37 1110.86,173.37 1112.02,173.37 1113.17,173.37 1114.33,173.37 1115.49,173.37 1116.65,173.37 1117.81,173.37 1118.97,173.37 1120.12,173.37 1121.28,173.37 1122.44,173.37 1123.60,173.37 1124.75,173.37 1125.91,173.37 1127.07,173.37 1128.22,173.37 1129.38,173.37 1130.54,173.37 1131.70,173.37 1132.85,173.37 1134.01,173.37 1135.17,173.37 1136.33,173.37 1137.48,173.37 1138.64,173.37 1139.80,173.37 1140.96,173.37 1142.11,173.37 1143.27,173.37 1144.43,173.37 1145.59,173.37 1146.74,173.37 1147.90,173.37 1149.06,173.37 1150.23,173.37 1151.39,173.37 1152.55,173.37 1153.71,173.37 1154.87,173.37 1156.02,173.37 1157.18,173.37 1158.34,173.37 1159.50,173.37 1160.65,173.37 1161.81,173.37 1162.97,173.37 1164.13,173.37 1165.29,173.37 1166.45,173.37 1167.60,173.37 1168.76,173.37 1169.92,173.37 1171.08,173.37 1172.23,173.37 1173.39,173.37 1174.55,173.37 1175.71,173.37 1176.86,173.37 1178.02,173.37 1179.18,173.37 1180.34,173.37 1181.49,173.37 1182.65,173.37 1183.81,173.37 1184.97,173.37 1186.12,173.37 1187.28,173.37 1188.44,173.37 1189.60,173.37 1190.76,173.37 1191.91,173.37 1193.07,173.37 1194.23,173.37 1195.40,173.37 1196.59,173.37 1197.75,173.37 1198.91,173.37 1200.06,173.37 1201.22,173.37 1202.38,173.37 1203.54,173.37 1204.70,173.37 1205.85,173.37 1207.01,173.37 1208.17,173.37 1209.32,173.37 1210.51,173.37 1211.72,173.37 1212.88,173.37 1214.04,173.37 1215.19,173.37 1216.35,173.37 1217.51,173.37 1218.67,173.37 1219.82,173.37 1220.98,173.37 1222.14,173.37 1223.30,173.37 1224.46,173.37 1225.61,173.37 1226.77,173.37 1227.94,173.37 1229.10,173.37 1230.26,173.37 1231.41,173.37 1232.57,173.37 1233.73,173.37 1234.88,173.37 1236.04,173.37 1237.20,173.37 1238.36,173.37 1239.51,173.37 1240.67,173.37 1241.83,173.37 1242.99,173.37 1244.14,173.37 1245.30,173.37 1246.46,173.37 1247.62,173.37 1248.77,173.37 1249.93,173.37 1251.09,173.37 1252.24,173.37 1253.40,173.37 1254.56,173.37 1255.72,173.37 1256.89,173.37 1258.05,173.37 1259.21,173.37 1260.37,173.37 1261.53,173.37 1262.69,173.37 1263.85,173.37 1265.01,173.37 1266.17,173.37 1267.33,173.37 1268.48,173.37 1269.65,173.37 1270.80,173.37 1271.96,173.37 1273.12,173.37 1274.28,173.37 1275.44,173.37 1276.60,173.37 1277.75,173.37 1278.91,173.37 1280.07,173.37 1281.22,173.37 1282.38,173.37 1283.54,173.37 1284.74,173.37 1285.90,173.37 1287.05,173.37 1288.21,173.37 1289.37,173.37 1290.53,173.37 1291.69,173.37 1292.84,173.37 1294.00,173.37 1295.16,173.37 1296.32,173.37 1297.48,173.37 1298.64,173.37 1299.79,173.37 1300.95,173.37 1302.11,173.37 1303.27,173.37 1304.42,173.37 1305.58,173.37 1306.74,173.37 1307.90,173.37 1309.05,173.37 1310.21,173.37 1311.37,173.37 1312.53,173.37 1313.68,173.37 1314.84,173.37 1316.00,173.37 1317.16,173.37 1318.32,173.37 1319.47,173.37 1320.63,173.37 1321.79,173.37 1322.95,173.37 1324.10,173.37 1325.26,173.37 1326.42,173.37 1327.58,173.37 1328.74,173.37 1329.90,173.37 1331.06,173.37 1332.21,173.37 1333.37,173.37 1334.53,173.37 1335.69,173.37 1336.85,173.37 1338.00,173.37 1339.16,173.37 1340.32,173.37 1341.48,173.37 1342.64,173.37 1343.79,173.37 1344.95,173.37 1346.11,173.37 1347.27,173.37 1348.42,173.37 1349.58,173.37 1350.74,173.37 1351.90,173.37 1353.05,173.37 1354.21,173.37 1355.37,173.37 1356.53,173.37 1357.69,173.37 1358.84,173.37 1360.00,173.37" />
<polyline fill="none" stroke="#0f766e" stroke-width="2.2" points="90.00,766.03 91.22,766.03 92.37,766.03 93.53,766.03 94.69,765.57 95.85,765.57 97.01,765.57 98.17,765.57 99.36,765.57 100.53,765.57 101.69,765.57 102.84,765.57 104.00,765.57 105.16,765.57 106.35,765.57 107.51,765.57 108.71,765.57 109.87,765.57 111.02,765.12 112.18,765.12 113.34,765.12 114.54,765.12 115.69,765.12 116.85,765.12 118.01,765.12 119.20,765.12 120.36,765.12 121.57,765.12 122.77,765.12 123.93,764.67 125.13,764.67 126.29,764.67 127.46,764.67 128.62,764.67 129.78,764.67 130.94,764.67 132.10,764.67 133.26,764.67 134.45,764.67 135.61,764.67 136.78,764.67 137.94,764.67 139.11,764.67 140.30,764.67 141.46,764.67 142.61,764.67 143.77,764.67 144.97,764.22 146.15,764.22 147.31,764.22 148.47,764.22 149.63,764.22 150.79,764.22 151.95,764.22 153.10,764.22 154.26,764.22 155.42,764.22 156.58,764.22 157.75,764.22 158.91,764.22 160.11,764.22 161.31,764.22 162.46,764.22 163.62,764.22 164.78,764.22 165.94,764.22 167.10,764.22 168.26,764.22 169.43,764.22 170.60,764.22 171.89,764.22 173.08,764.22 174.24,764.22 175.42,764.22 176.58,764.22 177.75,764.22 178.91,764.22 180.10,764.22 181.25,764.22 182.43,764.22 183.58,764.22 184.78,764.22 185.94,763.77 187.10,763.77 188.26,763.77 189.47,763.77 190.72,763.77 191.88,763.77 193.04,763.77 194.20,763.77 195.36,763.77 196.54,763.77 197.70,763.77 198.86,763.77 200.02,763.77 201.24,763.77 202.41,763.77 203.58,763.77 204.78,763.77 205.93,763.77 207.09,763.77 208.35,763.77 209.50,763.77 210.71,763.77 211.90,763.77 213.10,763.77 214.30,763.77 215.51,763.77 216.70,763.77 217.85,763.77 219.03,763.77 220.21,763.77 221.37,763.77 222.53,763.77 223.70,763.77 224.88,763.77 226.31,763.77 227.48,763.77 228.65,763.77 229.99,763.77 231.15,763.77 232.31,763.77 233.49,763.77 234.92,763.77 236.08,763.77 237.40,763.77 238.55,763.77 239.71,763.31 240.91,763.31 242.25,763.77 243.46,763.77 244.63,763.31 245.80,763.31 246.96,763.31 248.12,763.31 249.28,763.31 250.49,763.31 251.66,763.31 252.82,763.31 253.99,763.31 255.17,763.77 256.43,763.77 257.62,763.77 258.78,763.77 259.97,763.77 261.13,763.77 262.35,763.77 263.58,763.31 264.80,763.77 265.98,763.77 267.15,763.77 268.48,763.77 270.06,763.77 271.23,763.77 272.38,763.77 273.55,763.77 274.71,763.77 275.94,763.77 277.12,763.77 278.29,763.77 279.45,763.77 280.75,763.77 281.92,763.77 283.08,763.77 284.24,763.77 285.40,763.77 286.70,763.77 287.99,763.77 289.18,763.77 290.52,763.77 291.68,763.77 292.84,763.77 294.00,763.77 295.15,763.77 296.31,763.77 297.47,763.77 298.63,763.77 299.79,763.77 300.95,763.77 302.13,763.77 303.28,763.77 304.45,763.77 305.61,763.77 306.79,763.77 307.95,763.77 309.11,763.77 310.27,763.77 311.43,763.77 312.61,763.77 313.82,763.77 314.98,763.77 316.14,763.77 317.30,763.77 318.46,763.77 319.61,763.77 320.78,763.77 321.95,763.77 323.11,763.77 324.31,763.77 325.47,763.77 326.63,763.77 327.81,763.77 328.97,763.77 330.13,763.77 331.45,763.77 332.61,763.77 333.77,763.77 334.95,763.77 336.20,763.77 337.38,763.77 338.55,763.77 339.70,763.77 340.87,763.77 342.03,763.77 343.19,763.77 344.34,763.77 345.64,763.77 346.79,763.77 348.08,763.77 349.24,763.77 350.40,763.77 351.75,763.77 352.91,763.77 354.07,763.77 355.23,763.77 356.39,763.77 357.81,763.77 358.97,763.77 360.20,763.77 361.36,763.77 362.52,763.77 363.67,763.77 364.83,763.77 365.99,763.77 367.19,763.77 368.35,763.77 369.51,763.77 370.67,763.77 371.84,763.77 373.03,763.77 374.18,763.77 375.35,763.77 376.54,763.77 377.70,763.77 378.88,763.31 380.04,763.77 381.26,763.77 382.55,763.77 383.72,763.77 384.92,763.77 386.08,763.77 387.40,763.77 388.57,763.77 389.72,763.77 390.89,763.77 392.05,763.77 393.21,763.77 394.37,763.77 395.57,763.77 396.73,763.77 397.93,763.77 399.10,763.77 400.26,763.77 401.42,763.77 402.59,763.77 403.88,763.77 405.05,763.77 406.21,763.77 407.37,763.77 408.62,763.77 409.80,763.77 410.96,763.77 412.12,763.77 413.30,763.77 414.46,763.77 415.62,763.77 416.78,763.77 417.95,763.77 419.13,763.77 420.30,763.77 421.45,763.77 422.74,764.22 423.90,764.22 425.06,764.22 426.23,764.22 427.38,764.22 428.54,764.22 429.70,764.22 430.91,764.22 432.07,764.22 433.25,764.22 434.46,764.22 435.67,764.22 436.84,764.22 437.99,764.22 439.15,764.22 440.31,764.22 441.53,764.22 442.70,764.22 443.87,764.22 445.03,764.22 446.22,764.22 447.41,764.22 448.60,764.67 449.76,764.67 450.92,764.67 452.09,764.67 453.25,764.67 454.43,764.67 455.59,764.67 456.79,764.67 457.95,764.67 459.12,764.67 460.28,764.67 461.46,764.67 462.61,764.67 463.77,764.67 464.93,764.67 466.09,764.67 467.25,764.67 468.40,764.67 469.57,764.67 470.72,764.67 471.88,764.67 473.08,764.67 474.33,764.67 475.53,764.67 476.69,764.67 477.89,764.67 479.09,764.67 480.24,764.67 481.58,764.67 482.79,764.67 483.95,764.67 485.11,764.67 486.30,764.67 487.46,764.67 488.72,764.67 489.87,764.67 491.03,764.67 492.19,764.67 493.36,764.67 494.51,764.67 495.68,764.67 496.84,764.67 498.00,764.67 499.16,764.67 500.39,764.67 501.55,764.67 502.72,764.67 503.87,764.67 505.03,764.67 506.19,764.67 507.35,764.67 508.51,764.67 509.67,764.67 510.83,764.67 511.99,764.67 513.15,764.67 514.31,764.67 515.48,764.67 516.66,764.67 517.84,764.67 519.00,764.67 520.16,764.67 521.32,764.67 522.47,764.67 523.67,764.67 524.83,764.67 526.00,764.67 527.17,764.67 528.33,764.67 529.49,764.67 530.65,764.67 531.80,764.67 532.96,764.67 534.12,764.67 535.28,764.67 536.44,764.67 537.60,764.67 538.75,764.67 539.91,764.67 541.07,764.67 542.23,764.67 543.38,764.67 544.54,764.67 545.70,764.67 546.86,764.67 548.01,764.67 549.17,764.67 550.33,764.67 551.48,764.67 552.64,764.67 553.80,764.67 554.96,764.67 556.11,764.67 557.27,764.67 558.43,764.67 559.59,764.67 560.75,765.12 561.91,765.12 563.06,765.12 564.22,765.12 565.38,765.12 566.54,765.12 567.69,765.12 568.85,765.12 570.01,765.12 571.17,765.12 572.32,765.12 573.48,765.12 574.64,765.12 575.79,765.12 576.95,765.12 578.11,765.12 579.27,765.12 580.42,765.12 581.58,765.12 582.74,765.12 583.90,765.12 585.05,765.12 586.21,765.12 587.37,765.12 588.52,765.12 589.68,765.12 590.84,765.12 592.00,765.12 593.16,765.12 594.32,765.12 595.48,765.12 596.63,765.12 597.79,765.12 598.95,765.12 600.11,765.12 601.27,765.12 602.43,765.12 603.59,765.12 604.75,765.12 605.91,765.12 607.06,765.12 608.22,765.12 609.38,765.12 610.54,765.12 611.69,765.57 612.85,765.57 614.01,765.57 615.17,765.57 616.32,765.57 617.48,765.57 618.64,765.57 619.79,765.57 620.95,765.57 622.15,765.57 623.31,765.57 624.47,765.57 625.63,765.57 626.78,765.57 627.94,765.57 629.10,765.57 630.26,765.57 631.43,765.57 632.58,765.57 633.74,765.57 634.90,765.57 636.05,765.57 637.21,765.57 638.37,765.57 639.53,765.57 640.68,765.57 641.84,765.57 643.00,765.57 644.16,765.57 645.31,765.57 646.47,765.57 647.63,765.57 648.79,765.57 649.94,765.57 651.11,765.57 652.27,765.57 653.43,765.57 654.58,765.57 655.74,765.57 656.90,765.57 658.05,765.57 659.21,765.57 660.37,765.57 661.53,765.57 662.68,765.57 663.84,765.57 665.00,765.57 666.16,765.57 667.32,765.57 668.48,765.57 669.63,765.57 670.79,765.57 671.95,765.57 673.11,765.57 674.26,765.57 675.42,765.57 676.58,765.57 677.74,765.57 678.89,765.57 680.05,766.03 681.21,766.03 682.37,766.03 683.52,766.03 684.68,766.03 685.84,766.03 687.00,766.03 688.15,766.03 689.31,766.03 690.47,766.03 691.62,766.03 692.78,766.03 693.94,766.03 695.10,766.03 696.26,766.03 697.41,766.03 698.57,766.03 699.73,766.03 700.89,766.03 702.04,766.03 703.20,766.03 704.36,766.03 705.52,766.03 706.67,766.03 707.83,766.03 708.99,766.03 710.15,766.03 711.31,766.03 712.46,766.03 713.62,766.03 714.78,766.03 715.94,766.03 717.09,766.03 718.25,766.03 719.41,766.03 720.57,766.03 721.73,766.03 722.89,766.03 724.04,766.03 725.20,766.03 726.36,766.03 727.52,766.48 728.67,766.48 729.83,766.48 730.99,766.48 732.15,766.48 733.31,766.48 734.46,766.48 735.62,766.48 736.78,766.48 737.94,766.48 739.10,766.48 740.26,766.48 741.41,766.48 742.57,766.48 743.73,766.48 744.88,766.48 746.04,766.48 747.20,766.48 748.36,766.48 749.51,766.48 750.67,766.48 751.83,766.48 752.99,766.48 754.15,766.48 755.30,766.48 756.47,766.48 757.64,766.48 758.79,766.48 759.95,766.48 761.11,766.48 762.27,766.48 763.43,766.48 764.58,766.48 765.74,766.48 766.90,766.48 768.06,766.48 769.21,766.48 770.37,766.48 771.53,766.48 772.69,766.48 773.84,766.48 775.00,766.48 776.16,766.48 777.32,766.48 778.47,766.48 779.63,766.48 780.79,766.48 781.94,766.48 783.11,766.48 784.27,766.48 785.43,766.48 786.58,766.48 787.74,766.48 788.90,766.48 790.06,766.48 791.21,766.48 792.37,766.48 793.53,766.48 794.69,766.48 795.85,766.48 797.00,764.67 798.16,764.67 799.32,763.31 800.47,763.31 801.63,762.86 802.79,762.86 803.95,761.05 805.10,761.05 806.26,760.15 807.42,760.15 808.58,760.15 809.73,760.15 810.89,760.15 812.05,760.15 813.21,760.15 814.36,760.15 815.52,759.24 816.68,759.24 817.84,759.24 819.00,759.69 820.16,759.69 821.31,759.69 822.47,760.15 823.63,760.15 824.79,760.60 825.95,760.60 827.10,760.60 828.26,761.05 829.42,761.05 830.58,761.50 831.73,761.96 832.89,761.96 834.05,761.96 835.21,761.96 836.36,761.96 837.52,761.96 838.68,761.50 839.84,761.50 840.99,761.50 842.15,761.50 843.31,761.96 844.47,761.96 845.62,761.96 846.78,761.96 847.94,762.86 849.10,762.86 850.25,763.31 851.41,763.31 852.57,763.77 853.73,763.77 854.89,764.67 856.04,764.67 857.20,765.12 858.36,765.12 859.52,765.57 860.68,765.57 861.83,765.57 862.99,766.03 864.15,766.03 865.31,766.48 866.46,766.93 867.62,766.93 868.78,767.38 869.94,767.38 871.09,767.84 872.25,767.84 873.41,767.84 874.57,768.29 875.72,768.29 876.89,768.29 878.04,768.29 879.20,768.29 880.37,768.74 881.53,768.74 882.69,768.74 883.85,768.74 885.00,768.74 886.16,768.74 887.32,768.74 888.48,768.74 889.63,769.19 890.79,769.19 891.95,769.65 893.11,769.65 894.26,770.10 895.42,770.10 896.58,770.10 897.74,770.55 898.89,770.55 900.05,771.00 901.21,771.46 902.37,771.46 903.52,771.91 904.68,771.91 905.84,771.91 907.00,771.91 908.15,771.91 909.31,772.36 910.47,772.36 911.63,772.81 912.78,773.27 913.94,773.27 915.10,773.72 916.27,773.72 917.43,774.17 918.59,774.17 919.75,774.17 920.91,774.17 922.07,774.17 923.22,775.08 924.38,775.98 925.54,775.98 926.70,776.43 927.85,776.43 929.01,776.43 930.17,776.43 931.33,777.34 932.48,777.34 933.64,777.34 934.80,777.79 935.96,778.24 937.11,778.24 938.27,777.79 939.43,777.79 940.58,778.24 941.74,778.24 942.90,778.24 944.06,779.15 945.22,779.15 946.37,779.60 947.53,780.05 948.69,780.05 949.85,780.05 951.02,780.05 952.17,780.05 953.33,780.05 954.49,780.51 955.65,780.51 956.80,780.51 957.97,780.51 959.12,781.41 960.28,781.41 961.46,781.86 962.62,781.86 963.78,781.86 964.94,781.86 966.09,782.32 967.25,782.32 968.41,782.77 969.57,782.77 970.72,783.22 971.88,783.22 973.04,783.67 974.20,783.67 975.35,784.13 976.51,784.13 977.67,784.13 978.83,784.58 979.99,784.58 981.15,785.03 982.30,785.48 983.46,785.48 984.62,785.94 985.78,785.94 986.95,786.39 988.11,786.39 989.26,786.84 990.42,786.84 991.58,787.29 992.74,787.29 993.89,787.75 995.05,787.75 996.22,788.20 997.38,788.20 998.54,788.65 999.70,788.65 1000.85,789.10 1002.01,789.10 1003.17,789.55 1004.33,789.55 1005.48,790.01 1006.64,790.01 1007.80,790.46 1008.95,790.46 1010.11,790.46 1011.27,790.46 1012.43,790.91 1013.58,790.91 1014.74,790.91 1015.90,790.91 1017.06,791.36 1018.22,791.36 1019.37,791.82 1020.53,791.82 1021.69,791.82 1022.85,791.82 1024.00,791.82 1025.18,792.27 1026.34,792.27 1027.50,792.72 1028.66,793.17 1029.82,793.17 1030.97,793.17 1032.13,793.17 1033.29,793.63 1034.45,793.63 1035.60,794.08 1036.76,794.08 1037.92,794.08 1039.08,794.08 1040.24,794.08 1041.39,794.08 1042.55,794.08 1043.71,794.08 1044.87,794.08 1046.03,794.08 1047.18,794.08 1048.35,794.08 1049.51,794.08 1050.67,794.53 1051.82,794.98 1052.98,794.98 1054.14,795.44 1055.30,795.44 1056.46,795.89 1057.61,795.89 1058.77,795.89 1059.93,796.34 1061.09,796.79 1062.24,796.79 1063.40,797.25 1064.56,797.25 1065.72,797.25 1066.87,797.25 1068.03,797.70 1069.19,797.70 1070.34,797.25 1071.50,797.25 1072.66,797.70 1073.82,797.70 1074.97,798.15 1076.13,798.15 1077.29,798.15 1078.45,798.15 1079.60,798.60 1080.76,798.60 1081.92,799.06 1083.08,799.06 1084.24,799.06 1085.39,799.06 1086.55,799.06 1087.71,799.06 1088.87,799.06 1090.02,799.06 1091.18,799.06 1092.34,799.06 1093.50,799.06 1094.65,799.51 1095.81,799.51 1096.97,799.51 1098.13,799.96 1099.28,799.96 1100.44,800.41 1101.60,800.41 1102.76,800.87 1103.91,800.87 1105.07,800.87 1106.23,800.87 1107.39,800.87 1108.54,801.32 1109.70,801.32 1110.86,801.32 1112.02,801.32 1113.17,801.32 1114.33,801.77 1115.49,801.77 1116.65,801.77 1117.81,801.77 1118.97,801.77 1120.12,802.22 1121.28,802.68 1122.44,802.68 1123.60,802.68 1124.75,802.68 1125.91,802.68 1127.07,803.13 1128.22,803.58 1129.38,803.58 1130.54,803.58 1131.70,803.58 1132.85,803.58 1134.01,803.58 1135.17,803.58 1136.33,803.58 1137.48,804.03 1138.64,804.03 1139.80,804.03 1140.96,804.49 1142.11,804.49 1143.27,804.49 1144.43,804.49 1145.59,804.49 1146.74,804.94 1147.90,804.94 1149.06,804.94 1150.23,804.94 1151.39,805.39 1152.55,805.39 1153.71,805.39 1154.87,805.39 1156.02,805.39 1157.18,805.39 1158.34,805.84 1159.50,805.84 1160.65,805.84 1161.81,805.84 1162.97,806.30 1164.13,806.30 1165.29,806.30 1166.45,806.75 1167.60,806.75 1168.76,806.75 1169.92,807.20 1171.08,807.20 1172.23,807.65 1173.39,807.65 1174.55,807.65 1175.71,807.65 1176.86,808.11 1178.02,808.11 1179.18,808.56 1180.34,808.56 1181.49,808.56 1182.65,808.56 1183.81,808.56 1184.97,808.56 1186.12,808.56 1187.28,808.56 1188.44,808.56 1189.60,808.56 1190.76,808.56 1191.91,808.56 1193.07,808.56 1194.23,808.56 1195.40,808.56 1196.59,808.56 1197.75,808.56 1198.91,808.56 1200.06,808.56 1201.22,808.56 1202.38,808.56 1203.54,809.01 1204.70,809.01 1205.85,809.01 1207.01,809.01 1208.17,809.01 1209.32,809.46 1210.51,809.46 1211.72,809.46 1212.88,809.46 1214.04,809.92 1215.19,809.92 1216.35,809.92 1217.51,809.92 1218.67,810.37 1219.82,810.37 1220.98,810.37 1222.14,810.37 1223.30,810.37 1224.46,810.37 1225.61,810.37 1226.77,810.37 1227.94,810.37 1229.10,810.37 1230.26,810.82 1231.41,810.82 1232.57,810.37 1233.73,810.37 1234.88,810.82 1236.04,810.82 1237.20,810.82 1238.36,810.82 1239.51,811.27 1240.67,811.27 1241.83,811.27 1242.99,811.27 1244.14,811.27 1245.30,811.27 1246.46,811.73 1247.62,811.73 1248.77,811.73 1249.93,811.73 1251.09,811.73 1252.24,811.73 1253.40,811.73 1254.56,811.73 1255.72,812.18 1256.89,812.18 1258.05,812.18 1259.21,812.18 1260.37,812.18 1261.53,812.18 1262.69,812.18 1263.85,812.18 1265.01,812.18 1266.17,812.18 1267.33,812.63 1268.48,812.63 1269.65,812.18 1270.80,812.18 1271.96,812.18 1273.12,812.18 1274.28,812.18 1275.44,812.18 1276.60,812.18 1277.75,812.18 1278.91,812.18 1280.07,812.18 1281.22,812.18 1282.38,812.63 1283.54,812.63 1284.74,812.63 1285.90,812.63 1287.05,812.63 1288.21,812.63 1289.37,812.63 1290.53,812.63 1291.69,812.63 1292.84,812.63 1294.00,812.63 1295.16,813.08 1296.32,813.08 1297.48,813.08 1298.64,813.08 1299.79,813.08 1300.95,813.08 1302.11,813.08 1303.27,813.08 1304.42,813.54 1305.58,813.54 1306.74,813.54 1307.90,813.99 1309.05,813.99 1310.21,813.99 1311.37,813.99 1312.53,813.99 1313.68,813.99 1314.84,813.99 1316.00,813.99 1317.16,813.99 1318.32,813.99 1319.47,814.44 1320.63,814.44 1321.79,814.44 1322.95,814.44 1324.10,814.44 1325.26,814.89 1326.42,814.89 1327.58,814.89 1328.74,814.89 1329.90,814.89 1331.06,814.89 1332.21,814.89 1333.37,814.89 1334.53,814.89 1335.69,814.89 1336.85,814.89 1338.00,814.89 1339.16,814.89 1340.32,814.89 1341.48,814.89 1342.64,814.89 1343.79,814.89 1344.95,814.89 1346.11,815.34 1347.27,815.34 1348.42,814.89 1349.58,814.89 1350.74,814.89 1351.90,814.89 1353.05,814.89 1354.21,814.89 1355.37,814.89 1356.53,814.89 1357.69,814.89 1358.84,814.89 1360.00,814.89" />
<polyline fill="none" stroke="#dc2626" stroke-width="2.2" points="90.00,509.58 91.22,509.22 92.37,508.49 93.53,509.02 94.69,509.20 95.85,510.05 97.01,509.19 98.17,509.46 99.36,508.83 100.53,509.10 101.69,509.00 102.84,509.10 104.00,508.96 105.16,509.51 106.35,509.08 107.51,509.93 108.71,509.41 109.87,509.80 111.02,509.26 112.18,509.85 113.34,510.36 114.54,508.80 115.69,509.60 116.85,509.55 118.01,509.32 119.20,509.10 120.36,510.31 121.57,509.85 122.77,511.91 123.93,509.93 125.13,509.96 126.29,509.88 127.46,510.05 128.62,510.09 129.78,511.04 130.94,509.68 132.10,510.21 133.26,508.99 134.45,510.46 135.61,509.63 136.78,509.28 137.94,508.80 139.11,509.04 140.30,509.84 141.46,509.28 142.61,509.30 143.77,508.95 144.97,509.32 146.15,509.25 147.31,510.26 148.47,510.10 149.63,509.44 150.79,509.70 151.95,509.14 153.10,509.57 154.26,509.97 155.42,509.94 156.58,509.84 157.75,510.23 158.91,509.47 160.11,509.18 161.31,508.62 162.46,509.78 163.62,509.05 164.78,509.89 165.94,508.73 167.10,509.40 168.26,509.57 169.43,511.27 170.60,509.31 171.89,509.74 173.08,510.03 174.24,509.95 175.42,508.94 176.58,509.11 177.75,509.31 178.91,508.25 180.10,510.55 181.25,509.42 182.43,509.40 183.58,509.49 184.78,509.80 185.94,509.07 187.10,509.62 188.26,510.32 189.47,509.79 190.72,508.60 191.88,508.59 193.04,510.12 194.20,510.55 195.36,508.21 196.54,510.27 197.70,507.16 198.86,508.86 200.02,510.08 201.24,510.42 202.41,509.10 203.58,508.47 204.78,509.96 205.93,509.55 207.09,510.61 208.35,509.34 209.50,508.15 210.71,508.75 211.90,508.66 213.10,508.44 214.30,509.63 215.51,509.31 216.70,509.99 217.85,508.55 219.03,509.57 220.21,509.19 221.37,509.98 222.53,509.84 223.70,509.84 224.88,509.31 226.31,509.34 227.48,509.63 228.65,509.03 229.99,509.15 231.15,510.38 232.31,509.16 233.49,510.04 234.92,509.54 236.08,508.97 237.40,509.56 238.55,509.52 239.71,509.71 240.91,509.06 242.25,508.69 243.46,509.13 244.63,508.66 245.80,508.95 246.96,509.78 248.12,509.98 249.28,509.43 250.49,510.32 251.66,510.47 252.82,510.28 253.99,509.70 255.17,509.90 256.43,509.72 257.62,509.89 258.78,509.14 259.97,509.08 261.13,509.49 262.35,508.57 263.58,510.40 264.80,510.34 265.98,509.72 267.15,509.78 268.48,509.08 270.06,510.26 271.23,510.39 272.38,509.51 273.55,507.86 274.71,509.57 275.94,509.95 277.12,509.44 278.29,510.52 279.45,509.68 280.75,508.99 281.92,509.92 283.08,509.39 284.24,510.66 285.40,510.09 286.70,509.32 287.99,509.88 289.18,511.09 290.52,509.27 291.68,510.13 292.84,510.05 294.00,510.20 295.15,510.11 296.31,508.27 297.47,509.19 298.63,510.12 299.79,509.10 300.95,508.61 302.13,509.50 303.28,508.96 304.45,510.22 305.61,509.41 306.79,509.74 307.95,510.30 309.11,510.68 310.27,510.04 311.43,510.01 312.61,509.34 313.82,510.46 314.98,509.85 316.14,509.85 317.30,510.08 318.46,509.70 319.61,509.30 320.78,510.22 321.95,509.25 323.11,509.03 324.31,509.80 325.47,509.56 326.63,509.18 327.81,509.18 328.97,508.69 330.13,509.85 331.45,509.36 332.61,510.30 333.77,508.78 334.95,509.76 336.20,509.74 337.38,510.84 338.55,509.81 339.70,509.84 340.87,510.41 342.03,509.81 343.19,510.06 344.34,510.52 345.64,509.14 346.79,509.27 348.08,509.19 349.24,510.04 350.40,510.08 351.75,511.05 352.91,511.67 354.07,510.34 355.23,509.82 356.39,509.73 357.81,509.60 358.97,509.86 360.20,510.46 361.36,510.46 362.52,509.59 363.67,509.06 364.83,510.53 365.99,510.88 367.19,509.87 368.35,509.48 369.51,509.44 370.67,509.43 371.84,510.14 373.03,509.38 374.18,509.39 375.35,510.17 376.54,510.55 377.70,509.78 378.88,508.65 380.04,509.49 381.26,510.46 382.55,509.32 383.72,510.02 384.92,509.56 386.08,509.88 387.40,510.57 388.57,510.02 389.72,507.90 390.89,509.66 392.05,510.41 393.21,508.45 394.37,509.87 395.57,509.31 396.73,509.33 397.93,508.13 399.10,509.59 400.26,509.12 401.42,509.14 402.59,510.52 403.88,509.01 405.05,508.98 406.21,509.72 407.37,509.78 408.62,509.10 409.80,509.45 410.96,509.74 412.12,509.61 413.30,509.24 414.46,509.81 415.62,509.83 416.78,510.08 417.95,509.41 419.13,509.31 420.30,509.68 421.45,510.25 422.74,509.96 423.90,508.36 425.06,510.47 426.23,509.15 427.38,509.27 428.54,509.45 429.70,509.97 430.91,509.86 432.07,508.69 433.25,509.72 434.46,509.72 435.67,509.36 436.84,509.89 437.99,509.39 439.15,510.36 440.31,509.95 441.53,509.38 442.70,509.56 443.87,509.46 445.03,510.32 446.22,510.12 447.41,511.24 448.60,508.88 449.76,510.41 450.92,511.03 452.09,509.26 453.25,510.63 454.43,510.13 455.59,509.74 456.79,510.01 457.95,510.45 459.12,510.35 460.28,510.08 461.46,510.66 462.61,509.47 463.77,508.69 464.93,510.81 466.09,509.89 467.25,508.81 468.40,509.58 469.57,509.78 470.72,508.98 471.88,509.69 473.08,509.24 474.33,510.02 475.53,509.99 476.69,509.72 477.89,508.71 479.09,510.49 480.24,510.81 481.58,509.10 482.79,509.44 483.95,509.44 485.11,510.00 486.30,509.51 487.46,508.81 488.72,509.86 489.87,508.89 491.03,510.14 492.19,509.43 493.36,510.34 494.51,509.63 495.68,509.82 496.84,510.14 498.00,509.65 499.16,509.22 500.39,509.77 501.55,509.22 502.72,509.74 503.87,508.54 505.03,509.15 506.19,511.24 507.35,509.78 508.51,510.07 509.67,509.70 510.83,510.20 511.99,509.79 513.15,509.92 514.31,510.18 515.48,509.07 516.66,510.07 517.84,509.02 519.00,509.48 520.16,509.50 521.32,509.91 522.47,509.22 523.67,509.95 524.83,509.11 526.00,509.54 527.17,509.66 528.33,508.58 529.49,509.06 530.65,509.58 531.80,509.39 532.96,508.31 534.12,508.37 535.28,509.68 536.44,509.55 537.60,510.36 538.75,509.60 539.91,510.14 541.07,508.95 542.23,509.40 543.38,509.35 544.54,509.41 545.70,509.56 546.86,509.64 548.01,510.07 549.17,510.61 550.33,509.98 551.48,510.16 552.64,508.46 553.80,510.36 554.96,508.64 556.11,509.33 557.27,509.68 558.43,509.53 559.59,509.75 560.75,510.09 561.91,509.36 563.06,509.50 564.22,509.23 565.38,508.39 566.54,509.03 567.69,509.37 568.85,509.02 570.01,510.12 571.17,508.94 572.32,510.56 573.48,509.13 574.64,509.50 575.79,509.90 576.95,509.86 578.11,509.46 579.27,509.29 580.42,509.34 581.58,509.37 582.74,509.55 583.90,509.64 585.05,508.81 586.21,509.94 587.37,510.31 588.52,509.21 589.68,508.19 590.84,508.82 592.00,509.04 593.16,509.45 594.32,509.90 595.48,509.57 596.63,510.36 597.79,509.22 598.95,510.20 600.11,508.26 601.27,509.46 602.43,509.81 603.59,510.19 604.75,509.89 605.91,510.13 607.06,507.39 608.22,509.94 609.38,508.32 610.54,510.20 611.69,510.19 612.85,509.81 614.01,509.57 615.17,510.63 616.32,509.44 617.48,509.27 618.64,509.45 619.79,508.01 620.95,509.47 622.15,510.22 623.31,509.63 624.47,509.09 625.63,510.55 626.78,509.36 627.94,510.01 629.10,508.80 630.26,508.75 631.43,509.70 632.58,508.70 633.74,510.16 634.90,508.88 636.05,509.48 637.21,509.36 638.37,510.58 639.53,508.74 640.68,508.86 641.84,510.37 643.00,509.92 644.16,508.77 645.31,509.32 646.47,509.52 647.63,510.09 648.79,509.50 649.94,508.08 651.11,510.76 652.27,510.10 653.43,509.34 654.58,508.86 655.74,509.45 656.90,509.83 658.05,510.04 659.21,509.70 660.37,509.15 661.53,510.74 662.68,509.07 663.84,509.11 665.00,509.93 666.16,509.02 667.32,509.08 668.48,508.96 669.63,509.62 670.79,509.25 671.95,508.61 673.11,510.63 674.26,508.72 675.42,509.38 676.58,508.18 677.74,509.97 678.89,508.34 680.05,509.73 681.21,509.07 682.37,508.79 683.52,510.07 684.68,509.24 685.84,509.53 687.00,510.31 688.15,508.83 689.31,509.67 690.47,510.33 691.62,510.71 692.78,508.03 693.94,510.53 695.10,509.35 696.26,509.09 697.41,509.51 698.57,510.06 699.73,510.04 700.89,509.67 702.04,510.24 703.20,508.64 704.36,509.55 705.52,508.65 706.67,509.10 707.83,508.22 708.99,509.77 710.15,508.68 711.31,509.55 712.46,509.42 713.62,509.64 714.78,509.09 715.94,510.07 717.09,510.15 718.25,509.19 719.41,510.45 720.57,508.89 721.73,510.38 722.89,510.30 724.04,509.68 725.20,510.02 726.36,508.34 727.52,509.27 728.67,509.86 729.83,509.85 730.99,510.52 732.15,510.12 733.31,510.21 734.46,508.91 735.62,508.87 736.78,509.16 737.94,509.54 739.10,509.96 740.26,510.79 741.41,509.10 742.57,509.56 743.73,509.42 744.88,509.40 746.04,508.49 747.20,509.72 748.36,509.11 749.51,510.11 750.67,509.69 751.83,509.44 752.99,510.46 754.15,510.25 755.30,510.82 756.47,510.19 757.64,509.73 758.79,510.14 759.95,509.36 761.11,509.99 762.27,509.66 763.43,511.00 764.58,510.05 765.74,509.71 766.90,509.09 768.06,509.58 769.21,508.80 770.37,509.80 771.53,509.48 772.69,509.91 773.84,509.71 775.00,510.31 776.16,509.90 777.32,509.49 778.47,508.82 779.63,509.23 780.79,510.77 781.94,509.88 783.11,510.11 784.27,508.63 785.43,509.93 786.58,508.98 787.74,509.66 788.90,509.57 790.06,509.70 791.21,509.53 792.37,508.96 793.53,509.33 794.69,508.65 795.85,510.55 797.00,509.68 798.16,511.02 799.32,509.61 800.47,509.65 801.63,509.65 802.79,511.18 803.95,511.18 805.10,509.32 806.26,509.32 807.42,510.91 808.58,510.91 809.73,508.61 810.89,508.61 812.05,509.57 813.21,509.57 814.36,510.57 815.52,510.57 816.68,509.62 817.84,509.62 819.00,508.87 820.16,508.87 821.31,509.82 822.47,509.82 823.63,510.58 824.79,510.58 825.95,510.22 827.10,510.22 828.26,509.86 829.42,509.86 830.58,509.32 831.73,509.32 832.89,509.38 834.05,509.38 835.21,509.51 836.36,509.51 837.52,510.48 838.68,510.48 839.84,509.89 840.99,509.89 842.15,509.87 843.31,509.87 844.47,510.63 845.62,510.63 846.78,509.40 847.94,509.40 849.10,509.67 850.25,509.67 851.41,510.42 852.57,510.42 853.73,510.22 854.89,510.22 856.04,509.34 857.20,509.34 858.36,510.44 859.52,510.44 860.68,510.03 861.83,510.03 862.99,509.21 864.15,509.21 865.31,509.72 866.46,509.72 867.62,509.92 868.78,509.92 869.94,509.71 871.09,509.71 872.25,510.40 873.41,510.40 874.57,510.23 875.72,510.23 876.89,509.59 878.04,509.59 879.20,510.28 880.37,510.28 881.53,509.61 882.69,509.61 883.85,507.77 885.00,507.77 886.16,509.24 887.32,509.24 888.48,509.24 889.63,509.24 890.79,509.45 891.95,509.45 893.11,510.95 894.26,510.95 895.42,510.74 896.58,510.74 897.74,510.21 898.89,510.21 900.05,508.86 901.21,508.86 902.37,510.33 903.52,510.33 904.68,511.23 905.84,511.23 907.00,509.74 908.15,509.74 909.31,509.94 910.47,510.34 911.63,509.83 912.78,510.07 913.94,508.81 915.10,510.51 916.27,511.01 917.43,510.07 918.59,508.89 919.75,509.05 920.91,509.03 922.07,510.58 923.22,510.21 924.38,510.33 925.54,509.50 926.70,510.19 927.85,509.43 929.01,509.48 930.17,508.74 931.33,509.74 932.48,508.68 933.64,509.90 934.80,509.57 935.96,509.09 937.11,509.49 938.27,509.69 939.43,509.80 940.58,509.52 941.74,508.64 942.90,510.00 944.06,510.06 945.22,510.04 946.37,508.84 947.53,510.64 948.69,509.90 949.85,509.93 951.02,509.29 952.17,509.26 953.33,507.94 954.49,509.07 955.65,509.52 956.80,510.73 957.97,509.27 959.12,510.69 960.28,509.66 961.46,509.42 962.62,509.94 963.78,511.19 964.94,508.73 966.09,510.03 967.25,511.39 968.41,510.01 969.57,511.37 970.72,510.67 971.88,510.75 973.04,509.47 974.20,509.01 975.35,508.71 976.51,510.36 977.67,509.07 978.83,510.22 979.99,510.95 981.15,509.62 982.30,511.06 983.46,509.95 984.62,509.21 985.78,510.77 986.95,510.06 988.11,508.51 989.26,510.87 990.42,508.93 991.58,510.37 992.74,509.39 993.89,509.31 995.05,509.97 996.22,508.91 997.38,509.85 998.54,508.57 999.70,508.73 1000.85,509.62 1002.01,509.89 1003.17,509.81 1004.33,510.29 1005.48,510.91 1006.64,509.95 1007.80,510.14 1008.95,510.76 1010.11,510.38 1011.27,510.07 1012.43,510.33 1013.58,510.80 1014.74,510.98 1015.90,510.21 1017.06,510.02 1018.22,510.62 1019.37,511.54 1020.53,510.13 1021.69,510.81 1022.85,509.56 1024.00,509.98 1025.18,510.44 1026.34,511.50 1027.50,510.20 1028.66,510.89 1029.82,510.45 1030.97,509.22 1032.13,509.55 1033.29,509.82 1034.45,509.34 1035.60,510.31 1036.76,509.97 1037.92,509.68 1039.08,510.28 1040.24,509.14 1041.39,510.43 1042.55,510.93 1043.71,510.55 1044.87,510.27 1046.03,508.50 1047.18,509.69 1048.35,510.93 1049.51,510.74 1050.67,510.70 1051.82,510.25 1052.98,510.53 1054.14,510.07 1055.30,511.21 1056.46,511.47 1057.61,509.31 1058.77,510.19 1059.93,509.80 1061.09,510.69 1062.24,510.73 1063.40,510.06 1064.56,510.87 1065.72,509.40 1066.87,510.87 1068.03,510.05 1069.19,509.67 1070.34,510.54 1071.50,509.48 1072.66,511.25 1073.82,508.87 1074.97,509.47 1076.13,511.42 1077.29,510.75 1078.45,509.85 1079.60,509.26 1080.76,509.58 1081.92,510.49 1083.08,510.84 1084.24,510.70 1085.39,509.11 1086.55,509.53 1087.71,510.77 1088.87,509.38 1090.02,510.37 1091.18,509.64 1092.34,509.85 1093.50,510.47 1094.65,510.29 1095.81,510.15 1096.97,509.98 1098.13,510.40 1099.28,510.69 1100.44,509.48 1101.60,510.50 1102.76,510.10 1103.91,509.85 1105.07,510.40 1106.23,510.37 1107.39,511.07 1108.54,509.87 1109.70,510.89 1110.86,510.57 1112.02,509.74 1113.17,510.26 1114.33,511.05 1115.49,510.77 1116.65,510.04 1117.81,510.01 1118.97,509.95 1120.12,509.44 1121.28,510.57 1122.44,510.03 1123.60,509.24 1124.75,511.37 1125.91,509.22 1127.07,509.97 1128.22,509.42 1129.38,509.83 1130.54,510.02 1131.70,510.92 1132.85,510.89 1134.01,509.01 1135.17,510.30 1136.33,510.90 1137.48,509.55 1138.64,510.60 1139.80,510.22 1140.96,509.97 1142.11,510.35 1143.27,509.77 1144.43,509.13 1145.59,509.92 1146.74,510.46 1147.90,509.33 1149.06,509.95 1150.23,509.96 1151.39,510.41 1152.55,511.17 1153.71,510.63 1154.87,509.97 1156.02,510.85 1157.18,509.83 1158.34,509.52 1159.50,509.32 1160.65,509.14 1161.81,509.54 1162.97,509.82 1164.13,510.64 1165.29,510.28 1166.45,511.41 1167.60,510.06 1168.76,510.02 1169.92,509.63 1171.08,509.84 1172.23,510.25 1173.39,510.02 1174.55,509.36 1175.71,509.92 1176.86,510.67 1178.02,510.92 1179.18,508.64 1180.34,509.30 1181.49,508.83 1182.65,509.88 1183.81,510.26 1184.97,509.32 1186.12,510.12 1187.28,510.29 1188.44,509.26 1189.60,509.03 1190.76,510.43 1191.91,507.68 1193.07,508.73 1194.23,509.24 1195.40,508.83 1196.59,510.21 1197.75,509.37 1198.91,510.29 1200.06,509.31 1201.22,510.50 1202.38,510.09 1203.54,509.57 1204.70,509.52 1205.85,510.05 1207.01,510.20 1208.17,510.23 1209.32,510.26 1210.51,509.08 1211.72,509.12 1212.88,509.49 1214.04,509.72 1215.19,508.90 1216.35,510.63 1217.51,510.05 1218.67,508.91 1219.82,509.50 1220.98,509.70 1222.14,510.21 1223.30,510.20 1224.46,509.97 1225.61,510.09 1226.77,510.12 1227.94,508.34 1229.10,509.68 1230.26,510.03 1231.41,508.93 1232.57,508.52 1233.73,510.14 1234.88,509.39 1236.04,510.78 1237.20,508.08 1238.36,509.43 1239.51,509.38 1240.67,508.28 1241.83,510.50 1242.99,509.02 1244.14,508.75 1245.30,509.87 1246.46,509.00 1247.62,508.50 1248.77,509.22 1249.93,508.66 1251.09,509.58 1252.24,508.35 1253.40,508.81 1254.56,509.14 1255.72,508.33 1256.89,509.86 1258.05,510.29 1259.21,509.61 1260.37,508.69 1261.53,509.09 1262.69,508.23 1263.85,508.92 1265.01,508.72 1266.17,508.98 1267.33,509.97 1268.48,510.08 1269.65,509.39 1270.80,508.85 1271.96,509.25 1273.12,509.02 1274.28,509.93 1275.44,510.18 1276.60,508.32 1277.75,508.14 1278.91,510.51 1280.07,509.03 1281.22,508.59 1282.38,508.52 1283.54,510.70 1284.74,508.57 1285.90,508.70 1287.05,508.72 1288.21,509.47 1289.37,509.74 1290.53,508.62 1291.69,509.08 1292.84,509.69 1294.00,509.59 1295.16,509.24 1296.32,509.98 1297.48,509.90 1298.64,508.70 1299.79,509.45 1300.95,509.34 1302.11,508.35 1303.27,509.79 1304.42,510.64 1305.58,509.08 1306.74,510.78 1307.90,508.79 1309.05,510.15 1310.21,510.17 1311.37,509.60 1312.53,509.73 1313.68,508.04 1314.84,509.29 1316.00,509.40 1317.16,509.37 1318.32,509.26 1319.47,508.28 1320.63,508.39 1321.79,509.31 1322.95,508.66 1324.10,509.47 1325.26,509.26 1326.42,508.49 1327.58,509.19 1328.74,509.08 1329.90,508.93 1331.06,509.31 1332.21,509.01 1333.37,509.60 1334.53,509.80 1335.69,508.49 1336.85,508.90 1338.00,508.63 1339.16,509.47 1340.32,508.59 1341.48,508.82 1342.64,508.80 1343.79,508.81 1344.95,508.26 1346.11,508.69 1347.27,508.58 1348.42,509.41 1349.58,509.96 1350.74,508.17 1351.90,508.23 1353.05,509.27 1354.21,509.19 1355.37,509.75 1356.53,508.77 1357.69,508.66 1358.84,509.00 1360.00,508.88" />
<rect x="90" y="68" width="230" height="28" rx="8" fill="#fffdfa" stroke="#d7cfbf"/>
<line x1="108" y1="82" x2="142" y2="82" stroke="#0f766e" stroke-width="3"/>
<text x="150" y="86" font-size="13" fill="#2d2a26">GPS</text>
<line x1="198" y1="82" x2="232" y2="82" stroke="#dc2626" stroke-width="3"/>
<text x="240" y="86" font-size="13" fill="#2d2a26">Optical Flow Estimate</text>
<text x="90" y="882" font-size="13" fill="#5f5a50">Mean latitude: GPS 12.8878042, OF 12.8878178 | Mean altitude: GPS 945.6 m, OF 1004.9 m</text>
</svg>